<svg width="24" height="24" fill="none" xmlns="http://www.w3.org/2000/svg"><path fill-rule="evenodd" clip-rule="evenodd" d="M16.772 14.356l2.54.29c1.01.12 1.77.97 1.76 1.98l-.184 2.31c0 1.13-.94 2.07-2.07 2a16.913 16.913 0 01-6.206-1.598 17.054 17.054 0 01-8.561-9.186 16.915 16.915 0 01-1.123-5.106c-.07-1.13.87-2.07 2-2.07l2.501-.213c1.02 0 1.87.76 1.99 1.77l.29 2.52c.07.61-.14 1.21-.57 1.64l-2.621 2.063c1.44 2.84 3.76 5.15 6.59 6.59l2.024-2.42a1.99 1.99 0 011.64-.57zm-.219 1.988l2.512.287-.177 2.225v.08a14.93 14.93 0 01-3.858-.77l1.523-1.822zm-8.832-9.08L7.433 4.77l-2.42.206h-.085c.088 1.348.354 2.648.776 3.875L7.72 7.265z" fill="#1A1A1A"/></svg>