<svg width="24" height="24" fill="none" xmlns="http://www.w3.org/2000/svg"><path fill-rule="evenodd" clip-rule="evenodd" d="M11.2 4.9H6.317l-.85-3.16A1 1 0 004.5 1H1a1 1 0 000 2h2.734l.845 3.142 1.722 7.527A3 3 0 009.226 16h8.991a3 3 0 002.915-2.292l.449-1.846a9.05 9.05 0 01-2.088.124l-.304 1.25a1 1 0 01-.972.764H9.226a1 1 0 01-.975-.777L6.805 6.9h5.082a8.934 8.934 0 01-.686-2zm10.642 5.887l1.13-4.651A1 1 0 0022 4.9h-9.773c.172.708.44 1.38.786 2h7.715l-.995 4.096a8.02 8.02 0 002.109-.209z" fill="#1A1A1A"/><path d="M10 21.5a1.5 1.5 0 11-3 0 1.5 1.5 0 013 0zm10 0a1.5 1.5 0 11-3 0 1.5 1.5 0 013 0z" fill="#1A1A1A"/><path fill-rule="evenodd" clip-rule="evenodd" d="M8.555 14.168a1 1 0 01.277 1.387L7.868 17H20a1 1 0 010 2H7.868c-1.597 0-2.55-1.78-1.664-3.11l.964-1.445a1 1 0 011.387-.277z" fill="#1A1A1A"/></svg>