<svg width="24" height="24" fill="none" xmlns="http://www.w3.org/2000/svg"><path fill-rule="evenodd" clip-rule="evenodd" d="M13.768 5.732a2.5 2.5 0 10-3.536 3.536 2.5 2.5 0 003.536-3.536zm3.702 11.624c-1.296-.648-3.227-1.106-5.47-1.106s-4.174.459-5.47 1.107C5.115 18.064 5 18.672 5 18.75c0 .138.112.25.25.25h13.5a.25.25 0 00.25-.25c0-.078-.115-.686-1.53-1.393zM15.182 4.319a4.5 4.5 0 10-6.364 6.364 4.5 4.5 0 006.364-6.364zM21 18.75c0-2.486-4.027-4.5-9-4.5s-9 2.014-9 4.5A2.25 2.25 0 005.25 21h13.5A2.25 2.25 0 0021 18.75z" fill="#1A1A1A"/></svg>