<svg width="16" height="16" fill="none" xmlns="http://www.w3.org/2000/svg"><path d="M0 3a1 1 0 011-1h7a1 1 0 011 1v10H1a1 1 0 01-1-1V3zm9 1h2.55a1 1 0 01.748.336l2.45 2.755a1 1 0 01.252.664V12a1 1 0 01-1 1H9V4z" fill="#27AE60"/><circle cx="3.5" cy="12.96" r="1.8" fill="#fff" stroke="#27AE60" stroke-width="1.4"/><circle cx="11.883" cy="12.96" r="1.8" fill="#fff" stroke="#27AE60" stroke-width="1.4"/><path d="M10 6h1l2 2v1h-3V6z" fill="#fff"/><path d="M14 11h1a1 1 0 110 2h-1v-2z" fill="#27AE60"/></svg>