<svg width="28" height="28" fill="none" xmlns="http://www.w3.org/2000/svg"><path d="M13.136 1.959a1.286 1.286 0 011.728 0l2.264 2.055c.25.226.578.345.914.332l3.056-.118a1.286 1.286 0 011.323 1.11l.415 3.03c.045.334.22.636.486.842l2.416 1.874c.524.405.653 1.142.3 1.702l-1.63 2.587c-.18.285-.24.628-.169.957l.648 2.99a1.286 1.286 0 01-.864 1.495l-2.912.934c-.32.103-.588.327-.745.625L18.94 25.08a1.286 1.286 0 01-1.624.59l-2.831-1.156a1.286 1.286 0 00-.972 0l-2.831 1.157a1.286 1.286 0 01-1.624-.591l-1.425-2.706a1.285 1.285 0 00-.745-.625l-2.912-.934a1.286 1.286 0 01-.864-1.496l.647-2.989c.072-.329.01-.672-.168-.957l-1.63-2.587a1.286 1.286 0 01.3-1.702l2.416-1.873a1.29 1.29 0 00.486-.842l.414-3.03a1.286 1.286 0 011.324-1.11l3.056.117c.336.013.664-.106.913-.332l2.265-2.055z" fill="#EE2A74"/><path d="M12.833 8.167a1.167 1.167 0 112.333 0v4.666a1.167 1.167 0 11-2.333 0V8.167zm-.583 9.916a1.75 1.75 0 113.5 0 1.75 1.75 0 11-3.5 0z" fill="#fff"/></svg>