<svg width="240" height="46" fill="none" xmlns="http://www.w3.org/2000/svg"><g clip-path="url(#clip0)" fill="#000"><path d="M47.818 32.13l-.887-2.925h-6.6l-.887 2.925H35l6.042-18.63h5.178l6.042 18.63h-4.444zm-6.27-6.92h4.162l-2.079-6.84-2.084 6.84zm32.039-6.385h3.806V32.13h-3.806v-1.25c-.887 1.09-2.155 1.62-3.781 1.62-1.674 0-3.095-.665-4.292-2.025-1.192-1.355-1.778-3.035-1.778-5.005 0-1.97.581-3.62 1.778-4.975 1.192-1.355 2.613-2.05 4.292-2.05 1.626 0 2.894.53 3.781 1.625v-1.245zm-3.018 9.9c.887 0 1.626-.295 2.184-.88.558-.585.84-1.385.84-2.37 0-.985-.282-1.785-.84-2.37-.558-.585-1.292-.88-2.184-.88-.887 0-1.626.295-2.184.88-.558.585-.84 1.385-.84 2.37 0 .985.282 1.785.84 2.37.558.585 1.297.88 2.184.88zm19.918-8.81c.916.985 1.369 2.315 1.369 4.045v8.17H88.05v-7.585c0-1.57-.916-2.42-2.208-2.42-1.445 0-2.36.93-2.36 2.74v7.265h-3.806V18.825h3.805v1.25c.763-1.09 1.98-1.625 3.63-1.625 1.344 0 2.484.48 3.375 1.465zm9.58 12.585c-1.878 0-3.476-.665-4.773-2.025-1.292-1.355-1.955-3.035-1.955-5.005 0-1.97.658-3.62 1.955-4.975 1.292-1.355 2.895-2.05 4.773-2.05 1.879 0 3.477.69 4.774 2.05 1.292 1.355 1.955 3.005 1.955 4.975 0 1.97-.658 3.645-1.955 5.005-1.293 1.36-2.895 2.025-4.774 2.025zm0-3.885c.84 0 1.522-.29 2.079-.88.558-.585.84-1.33.84-2.26 0-.93-.282-1.675-.84-2.26-.557-.585-1.244-.88-2.079-.88-.834 0-1.52.29-2.079.88-.558.585-.839 1.33-.839 2.26 0 .93.281 1.675.84 2.26.557.59 1.244.88 2.078.88zm15.718-9.79H120l-4.697 13.305h-4.316l-4.697-13.305h4.216l2.642 8.435 2.637-8.435zM58.838 23.88c1.75.4 4.063 1.355 4.034 4.26 0 1.435-.505 2.53-1.52 3.275-1.016.715-2.256 1.085-3.754 1.085-2.665 0-4.072-.925-5.207-2.68l2.89-2.33c.53 1.14.977 1.54 2.15 1.54.916 0 1.536-.36 1.536-.92 0-.53-.992-.85-2.208-1.17-1.75-.505-4.034-1.41-4.034-4.125 0-1.385.481-2.45 1.42-3.22.964-.77 2.156-1.145 3.553-1.145 2.108 0 3.639 1.06 4.535 2.215l-2.794 2.43c-.405-.77-.806-1.225-1.721-1.255-.711-.02-1.088.36-1.088.865 0 .535.992.83 2.208 1.175z"/></g><g clip-path="url(#clip1)"><path d="M28 21.804l-1.677-5.134-7.107-.39-2.559-6.78H11.32l-2.56 6.78-7.087.39L0 21.804l5.532 4.544-1.846 6.965L8 36.505l5.989-3.93 5.97 3.915 4.313-3.192-1.827-6.95L28 21.804zm-8.77 9.161l-5.228-3.133-5.232 3.133 1.325-6.008-4.559-4.07 6.048-.581 2.414-5.647 2.414 5.647 6.047.58-4.558 4.071 1.33 6.008z" fill="#EE2459"/></g><defs><clipPath id="clip0"><path fill="#fff" transform="translate(35 13.5)" d="M0 0h85v19H0z"/></clipPath><clipPath id="clip1"><path fill="#fff" transform="translate(0 9.5)" d="M0 0h28v27H0z"/></clipPath></defs></svg>