<svg width="147" height="28" fill="none" xmlns="http://www.w3.org/2000/svg"><path d="M39.821 20.92l-.672-2.217h-5.003l-.672 2.218h-3.369l4.58-14.122h3.925l4.58 14.122h-3.369zm-4.753-5.245h3.156l-1.576-5.184-1.58 5.184zm24.287-4.84h2.884v10.086h-2.884v-.948c-.673.826-1.634 1.228-2.867 1.228-1.269 0-2.346-.504-3.253-1.535-.904-1.027-1.348-2.3-1.348-3.794 0-1.493.44-2.744 1.348-3.77.904-1.028 1.98-1.555 3.253-1.555 1.233 0 2.194.402 2.867 1.232v-.944zm-2.288 7.505c.672 0 1.232-.224 1.655-.668.423-.443.636-1.05.636-1.796 0-.747-.213-1.353-.636-1.796-.423-.444-.98-.667-1.656-.667-.672 0-1.232.223-1.655.667-.423.443-.636 1.05-.636 1.796 0 .747.213 1.353.636 1.796.423.444.983.668 1.655.668zm15.098-6.678c.694.746 1.037 1.754 1.037 3.066v6.193h-2.884v-5.75c0-1.19-.694-1.834-1.674-1.834-1.095 0-1.79.705-1.79 2.077v5.507H63.97V10.835h2.885v.948c.578-.826 1.5-1.232 2.75-1.232 1.02 0 1.884.364 2.56 1.11zm7.261 9.539c-1.424 0-2.635-.504-3.618-1.535-.98-1.027-1.482-2.3-1.482-3.794 0-1.493.499-2.744 1.482-3.77.98-1.028 2.194-1.555 3.618-1.555s2.635.523 3.618 1.554c.98 1.027 1.483 2.278 1.483 3.771 0 1.494-.5 2.763-1.483 3.794-.979 1.031-2.194 1.535-3.618 1.535zm0-2.945c.636 0 1.153-.22 1.576-.667.423-.443.636-1.008.636-1.713 0-.705-.213-1.27-.636-1.713a2.084 2.084 0 00-1.576-.667c-.632 0-1.153.22-1.576.667-.423.443-.636 1.008-.636 1.713 0 .705.213 1.27.636 1.713.423.447.944.667 1.576.667zm11.914-7.421h3.195l-3.56 10.085h-3.271l-3.56-10.085h3.195l2.002 6.394 1.999-6.394zm-43.165 3.832c1.326.303 3.08 1.027 3.058 3.23 0 1.087-.384 1.917-1.153 2.482-.77.542-1.71.822-2.845.822-2.02 0-3.087-.701-3.947-2.031l2.19-1.767c.401.865.741 1.168 1.63 1.168.694 0 1.164-.273 1.164-.698 0-.401-.752-.644-1.673-.887-1.327-.382-3.058-1.068-3.058-3.126 0-1.05.365-1.857 1.077-2.441.73-.584 1.634-.868 2.693-.868 1.597 0 2.758.804 3.437 1.68l-2.118 1.841c-.307-.584-.61-.928-1.305-.951-.538-.015-.824.273-.824.655 0 .406.752.63 1.674.891z" fill="#000"/><g clip-path="url(#clip0)"><path d="M25 12.481l-1.377-4.373-5.838-.333L15.683 2h-4.386L9.196 7.775l-5.823.333L2 12.48l4.544 3.871-1.516 5.933 3.542 2.72 4.92-3.348 4.904 3.335 3.543-2.72-1.5-5.92L25 12.482zm-7.204 7.804l-4.294-2.669-4.298 2.67 1.088-5.119L6.548 11.7l4.967-.495 1.983-4.81 1.983 4.81 4.967.495-3.744 3.467 1.092 5.118z" fill="#EE2459"/></g><defs><clipPath id="clip0"><path fill="#fff" transform="translate(2 2)" d="M0 0h23v23H0z"/></clipPath></defs></svg>