<svg width="29" height="18" fill="none" xmlns="http://www.w3.org/2000/svg"><path d="M18.751 2.07h-8.5v13.858h8.5V2.07z" fill="#FF5F00"/><path d="M11.127 9a8.786 8.786 0 013.372-6.928 8.838 8.838 0 00-12.94 2.254 8.8 8.8 0 003.626 12.601 8.842 8.842 0 009.314-.997A8.801 8.801 0 0111.127 9z" fill="#EB001B"/><path d="M27.94 14.461v-.284h.123v-.059h-.291v.06h.115v.283h.054zm.567 0v-.343h-.088l-.103.245-.103-.245h-.088v.343h.064v-.26l.095.223h.066l.096-.222v.26h.061zM28.784 9a8.8 8.8 0 01-1.345 4.676 8.842 8.842 0 01-12.94 2.252 8.816 8.816 0 003.373-6.929 8.799 8.799 0 00-3.373-6.929 8.838 8.838 0 0112.94 2.252 8.8 8.8 0 011.345 4.676V9z" fill="#F79E1B"/></svg>