<svg width="56" height="16" fill="none" xmlns="http://www.w3.org/2000/svg"><path fill-rule="evenodd" clip-rule="evenodd" d="M49.714 0H39.086c.571 3.543 4 6.857 7.771 6.857h8.457c.115-.343.115-.8.115-1.143 0-3.2-2.515-5.714-5.715-5.714z" fill="url(#paint0_linear)"/><path fill-rule="evenodd" clip-rule="evenodd" d="M40 7.429V16h5.143v-4.571h4.571c2.515 0 4.686-1.715 5.372-4H40zM21.714 0v16h4.572s1.143 0 1.714-1.143l4-8h.571V16h5.143V0h-4.571S32 .114 31.429 1.143l-4 8h-.572V0h-5.143zM0 16V0h5.143s1.486 0 2.286 2.286c2.057 6.057 2.285 6.857 2.285 6.857S10.171 7.657 12 2.286C12.8 0 14.286 0 14.286 0h5.143v16h-5.143V7.429h-.572L10.857 16H8.571L5.714 7.429h-.571V16H0z" fill="#4DB45F"/><defs><linearGradient id="paint0_linear" x1="39.056" y1="3.429" x2="55.429" y2="3.429" gradientUnits="userSpaceOnUse"><stop stop-color="#00B4E6"/><stop offset="1" stop-color="#088CCB"/></linearGradient></defs></svg>