<svg width="114" height="32" fill="none" xmlns="http://www.w3.org/2000/svg"><path d="M0 8a8 8 0 018-8h98a8 8 0 018 8v16a8 8 0 01-8 8H0V8z" fill="#F2C94C"/><path fill-rule="evenodd" clip-rule="evenodd" d="M9.635 15.577a2.667 2.667 0 000 3.771l3.017 3.017a2.667 2.667 0 003.77 0l5.874-5.873c.263-.263.404-.623.39-.994l-.182-4.721a1.333 1.333 0 00-1.28-1.281l-4.722-.182a1.333 1.333 0 00-.994.39l-5.873 5.873zm9.966-2.133a1.2 1.2 0 100-2.4 1.2 1.2 0 000 2.4z" fill="#1A1A1A"/><path d="M34.75 12.87h-2.525l.005 1.3a30.22 30.22 0 01-.052 2.08c-.035.598-.094 1.12-.176 1.564-.078.442-.18.813-.305 1.114-.12.3-.265.543-.433.726-.168.18-.36.309-.575.387a2.062 2.062 0 01-.709.117c-.21 0-.398-.014-.562-.04a2.012 2.012 0 01-.48-.136l-.006-1.646c.054.027.111.05.17.07.062.016.123.03.181.041a3.25 3.25 0 00.276.024c.105 0 .203-.014.293-.041a.501.501 0 00.246-.194c.074-.097.138-.238.193-.422.055-.183.1-.427.135-.732.039-.305.066-.682.082-1.13.02-.45.03-.987.03-1.612v-2.953h6.01V20H34.75v-7.13zm6.803 7.025c-.125.367-.238.685-.34.955a6.278 6.278 0 01-.305.703 2.117 2.117 0 01-.316.486 1.24 1.24 0 01-.387.305 1.668 1.668 0 01-.521.152 4.65 4.65 0 01-1.02.035 7.526 7.526 0 01-.34-.023v-1.342a5.328 5.328 0 00.492.035.88.88 0 00.732-.34.847.847 0 00.159-.28.835.835 0 00.047-.247l-2.338-6.72h1.857l1.371 4.704h.024l1.307-4.705h1.775l-2.197 6.282zm8.256.105H48.15v-2.52c-.07.032-.166.065-.287.1a5.987 5.987 0 01-.861.152 4.548 4.548 0 01-.451.024c-.364 0-.686-.031-.967-.094a1.877 1.877 0 01-.709-.316 1.35 1.35 0 01-.434-.563 2.251 2.251 0 01-.146-.861v-2.309h1.658v1.98c0 .184.022.335.065.452a.64.64 0 00.21.281c.094.07.212.12.352.147.14.027.307.04.498.04.285 0 .512-.025.68-.076.168-.054.299-.115.392-.181v-2.643h1.659V20zm1.588-6.387h1.658v5.045h1.728v-5.045h1.652v5.045h1.73v-5.045h1.657V20h-8.425v-6.387zm15.17 5.127c0 .192.01.35.029.475.023.12.052.219.088.293.035.07.074.123.117.158a.558.558 0 00.146.07V20h-1.834a3.735 3.735 0 01-.105-.293 1.685 1.685 0 01-.053-.451 8.304 8.304 0 01-.38.369 2.125 2.125 0 01-.41.299 2.145 2.145 0 01-.528.193c-.2.051-.44.076-.721.076a2.35 2.35 0 01-.791-.129 1.718 1.718 0 01-.621-.369 1.668 1.668 0 01-.41-.615 2.308 2.308 0 01-.147-.855c0-.262.041-.504.123-.727.082-.227.198-.424.346-.592a1.85 1.85 0 01.55-.422c.22-.113.464-.19.733-.228l1.623-.24c.059-.008.121-.02.188-.035a.646.646 0 00.193-.077.497.497 0 00.147-.152.517.517 0 00.058-.264.753.753 0 00-.052-.287.499.499 0 00-.165-.228.797.797 0 00-.316-.153 1.887 1.887 0 00-.486-.052 1.7 1.7 0 00-.54.07.743.743 0 00-.316.187.69.69 0 00-.17.282c-.035.105-.06.218-.076.34H61.13a2.08 2.08 0 01.175-.78c.071-.164.167-.33.288-.498a2.03 2.03 0 01.486-.457c.203-.14.45-.256.738-.346a3.64 3.64 0 011.037-.14c.57 0 1.032.058 1.383.176.356.113.631.263.826.45.2.184.332.391.399.622.07.226.105.453.105.68v3.386zm-1.659-1.857a5.547 5.547 0 01-.305.152c-.101.043-.236.08-.404.111l-.44.082c-.19.036-.359.077-.503.124a1.109 1.109 0 00-.363.187.747.747 0 00-.217.275c-.047.11-.07.247-.07.41 0 .137.021.256.064.358.043.098.102.18.176.246.078.063.168.11.27.14.1.032.21.048.327.048.063 0 .143-.006.24-.018a1.743 1.743 0 00.64-.24c.109-.07.206-.16.292-.27.086-.11.157-.242.211-.398.055-.16.082-.348.082-.563v-.644zM73.844 20H72.18v-2.35h-1.084c-.239 0-.444.01-.615.03a.967.967 0 00-.416.123.612.612 0 00-.252.281 1.429 1.429 0 00-.094.51l-.024.615c-.007.09-.02.207-.035.352a1.43 1.43 0 01-.111.439h-1.752a1.557 1.557 0 00.193-.48 1.63 1.63 0 00.041-.235c.012-.078.022-.16.03-.246l.082-.768c.02-.171.043-.32.07-.445a.891.891 0 01.135-.322.806.806 0 01.258-.24 1.91 1.91 0 01.439-.182 2.298 2.298 0 01-.2-.064 2.569 2.569 0 01-.228-.118 1.928 1.928 0 01-.24-.187 1.584 1.584 0 01-.223-.287 1.122 1.122 0 01-.123-.235 2.308 2.308 0 01-.064-.246 1.747 1.747 0 01-.03-.228 3.352 3.352 0 01-.005-.182c0-.226.027-.428.082-.603.054-.18.125-.336.21-.47a1.68 1.68 0 01.628-.567 1.56 1.56 0 01.416-.159 3.2 3.2 0 01.445-.082c.144-.02.28-.031.404-.035.125-.004.223-.006.293-.006h3.434V20zm-1.664-5.139h-1.336c-.14 0-.281.004-.422.012a.995.995 0 00-.381.094c-.11.05-.2.133-.27.246-.066.11-.1.266-.1.469 0 .199.034.351.1.457.07.105.159.183.264.234.11.05.23.08.363.088.133.008.266.012.399.012h1.383V14.86zm6.58-1.248h1.658v5.045h2.438v-5.045h1.652v5.045h.78v2.877h-1.536V20H78.76v-6.387zm8.525 3.71c0 .058.006.136.018.234a1.806 1.806 0 00.222.662 1.228 1.228 0 00.674.539c.164.058.36.088.586.088.117 0 .233-.016.346-.047a1.27 1.27 0 00.322-.147 1.11 1.11 0 00.252-.234.863.863 0 00.158-.316h1.717a1.3 1.3 0 01-.076.404c-.05.148-.129.3-.235.457a2.674 2.674 0 01-.943.85 3.361 3.361 0 01-.732.275c-.27.07-.57.105-.903.105a3.67 3.67 0 01-1.2-.193 2.558 2.558 0 01-.98-.598 2.898 2.898 0 01-.655-1.072c-.16-.437-.24-.969-.24-1.594 0-.433.056-.85.17-1.248.116-.402.296-.756.538-1.06.246-.305.559-.547.938-.727.382-.183.841-.275 1.377-.275.566 0 1.043.094 1.43.281.386.184.697.445.931.785.238.34.408.75.51 1.23a7.8 7.8 0 01.152 1.6h-4.377zm2.654-1.102c0-.281-.042-.516-.128-.703a1.204 1.204 0 00-.317-.446 1.031 1.031 0 00-.416-.234 1.491 1.491 0 00-.44-.07c-.136 0-.28.023-.433.07a1.079 1.079 0 00-.422.234 1.3 1.3 0 00-.316.446 1.759 1.759 0 00-.123.703h2.596zm2.836-2.608h1.659v2.309h2.437v-2.309h1.652V20h-1.652v-2.736h-2.437V20h-1.659v-6.387zm12.498 5.127c0 .192.01.35.03.475.023.12.052.219.088.293.035.07.074.123.117.158a.57.57 0 00.146.07V20h-1.834a3.847 3.847 0 01-.105-.293 1.688 1.688 0 01-.053-.451 8.356 8.356 0 01-.381.369 2.13 2.13 0 01-.41.299 2.139 2.139 0 01-.527.193c-.199.051-.44.076-.721.076a2.35 2.35 0 01-.791-.129 1.722 1.722 0 01-.621-.369 1.666 1.666 0 01-.41-.615 2.308 2.308 0 01-.147-.855c0-.262.041-.504.123-.727a1.82 1.82 0 01.346-.592 1.85 1.85 0 01.551-.422 2.28 2.28 0 01.732-.228l1.623-.24c.059-.008.121-.02.188-.035a.493.493 0 00.34-.228.518.518 0 00.058-.265.736.736 0 00-.053-.287.49.49 0 00-.164-.228.793.793 0 00-.316-.153 1.887 1.887 0 00-.486-.052c-.223 0-.403.023-.539.07a.744.744 0 00-.317.187.69.69 0 00-.17.282c-.035.105-.06.218-.076.34h-1.658a2.08 2.08 0 01.176-.78c.07-.164.166-.33.287-.498.125-.168.287-.32.486-.457.203-.14.449-.256.738-.346a3.64 3.64 0 011.038-.14c.57 0 1.031.058 1.382.176.356.113.631.263.827.45.199.184.332.391.398.622.07.226.105.453.105.68v3.386zm-1.658-1.857a5.53 5.53 0 01-.304.152c-.102.043-.237.08-.405.111l-.439.082c-.192.036-.36.077-.504.124a1.12 1.12 0 00-.363.187.748.748 0 00-.217.275 1.04 1.04 0 00-.071.41c0 .137.022.256.065.358a.71.71 0 00.176.246c.078.063.168.11.269.14.102.032.211.048.328.048.063 0 .143-.006.241-.018a1.745 1.745 0 00.638-.24c.11-.07.207-.16.293-.27.086-.11.157-.242.211-.398.055-.16.082-.348.082-.563v-.644z" fill="#1A1A1A"/></svg>