<svg width="88" height="16" fill="none" xmlns="http://www.w3.org/2000/svg"><path d="M7.528 1.359a.5.5 0 01.944 0l1.295 3.723a.5.5 0 00.462.336l3.941.08a.5.5 0 01.292.899l-3.141 2.382a.5.5 0 00-.177.543l1.142 3.773a.5.5 0 01-.764.555L8.286 11.4a.5.5 0 00-.572 0l-3.236 2.25a.5.5 0 01-.764-.556l1.142-3.773a.5.5 0 00-.177-.543L1.538 6.397a.5.5 0 01.292-.898l3.941-.08a.5.5 0 00.462-.337L7.528 1.36zm18 0a.5.5 0 01.944 0l1.295 3.723a.5.5 0 00.462.336l3.941.08a.5.5 0 01.292.899l-3.141 2.382a.5.5 0 00-.177.543l1.142 3.773a.5.5 0 01-.764.555l-3.236-2.25a.5.5 0 00-.572 0l-3.236 2.252a.5.5 0 01-.764-.556l1.142-3.773a.5.5 0 00-.177-.543l-3.141-2.382a.5.5 0 01.292-.898l3.941-.08a.5.5 0 00.462-.337l1.295-3.723zm18 0a.5.5 0 01.944 0l1.295 3.723a.5.5 0 00.462.336l3.941.08a.5.5 0 01.292.899l-3.141 2.382a.5.5 0 00-.177.543l1.142 3.773a.5.5 0 01-.764.555l-3.236-2.25a.5.5 0 00-.572 0l-3.236 2.252a.5.5 0 01-.764-.556l1.142-3.773a.5.5 0 00-.177-.543l-3.141-2.382a.5.5 0 01.292-.898l3.941-.08a.5.5 0 00.462-.337l1.295-3.723zm18 0a.5.5 0 01.944 0l1.295 3.723a.5.5 0 00.462.336l3.941.08a.5.5 0 01.292.899l-3.141 2.382a.5.5 0 00-.177.543l1.142 3.773a.5.5 0 01-.764.555l-3.236-2.25a.5.5 0 00-.572 0l-3.236 2.252a.5.5 0 01-.764-.556l1.142-3.773a.5.5 0 00-.177-.543l-3.141-2.382a.5.5 0 01.292-.898l3.941-.08a.5.5 0 00.462-.337l1.295-3.723z" fill="#FFA300"/><path d="M79.528 1.359a.5.5 0 01.944 0l1.295 3.723a.5.5 0 00.462.336l3.941.08a.5.5 0 01.292.899l-3.141 2.382a.5.5 0 00-.177.543l1.142 3.773a.5.5 0 01-.764.555l-3.236-2.25a.5.5 0 00-.572 0l-3.236 2.252a.5.5 0 01-.764-.556l1.142-3.773a.5.5 0 00-.177-.543l-3.141-2.382a.5.5 0 01.292-.898l3.941-.08a.5.5 0 00.462-.337l1.295-3.723z" fill="#CDC9CF"/></svg>