<svg width="24" height="24" fill="none" xmlns="http://www.w3.org/2000/svg"><path d="M15.07 2H8.93C3.33 2 2 3.33 2 8.93v6.14C2 20.67 3.33 22 8.93 22h6.14c5.6 0 6.93-1.33 6.93-6.93V8.93C22 3.33 20.67 2 15.07 2z" fill="#999"/><path d="M15.07 2H8.93C3.33 2 2 3.33 2 8.93v6.14C2 20.67 3.33 22 8.93 22h6.14c5.6 0 6.93-1.33 6.93-6.93V8.93C22 3.33 20.67 2 15.07 2z" fill="#4680C2"/><path d="M16.43 16h1.473c.424 0 .625-.212.514-.626-.13-.413-.615-1.008-1.24-1.725-.343-.393-.858-.837-1.01-1.049-.221-.292-.16-.403 0-.655-.02 0 1.776-2.533 1.958-3.39.1-.313 0-.545-.444-.545h-1.443c-.393 0-.554.202-.655.414 0 0-.757 1.826-1.816 3.006-.333.343-.495.454-.676.454-.101 0-.232-.111-.232-.424V8.545c0-.384-.111-.545-.424-.545h-2.31c-.232 0-.373.161-.373.343 0 .353.534.444.585 1.433v2.168c0 .465-.081.555-.273.555-.494 0-1.705-1.816-2.431-3.934C7.492 8.16 7.351 8 6.977 8H5.494C5.071 8 5 8.202 5 8.414c0 .383.494 2.32 2.32 4.882 1.21 1.746 2.936 2.694 4.49 2.694.938 0 1.049-.222 1.049-.575v-1.322c0-.423.09-.504.383-.504.212 0 .595.121 1.483.958.979.999 1.15 1.453 1.705 1.453z" fill="#fff"/></svg>