<svg width="85" height="16" fill="none" xmlns="http://www.w3.org/2000/svg"><g clip-path="url(#clip0)"><path d="M4.094 8.464L1.73 13.712H0l2.605-5.616C1.375 7.488.566 6.368.566 4.32.566 1.44 2.411 0 4.596 0h2.232v13.712H5.34V8.464H4.094zM5.34 1.248h-.793c-1.197 0-2.363.784-2.363 3.072 0 2.208 1.068 2.912 2.363 2.912h.793V1.248z" fill="red"/><path d="M14.029 4.048v9.664H12.54V9.376h-2.249v4.336h-1.52V4.048h1.52V8.16h2.25V4.048h1.488zm7.783 11.568h-1.36v-1.904h-4.19v1.904h-1.36v-3.12h.6c.89-2.048.986-5.04.986-7.616v-.832h4.547v8.448h.777v3.12zM19.547 5.264h-1.683v.176c0 2.032-.097 5.008-.906 7.056h2.605V5.264h-.016zm6.44 8.592c-2.023 0-3.252-1.584-3.252-4.56 0-3.104.873-5.376 2.945-5.376 1.634 0 2.702 1.216 2.702 4.496v.832h-4.078c0 2.192.615 3.344 1.829 3.344.857 0 1.537-.384 1.925-.656l.356 1.152a4.093 4.093 0 01-2.427.768zM24.32 8h2.508c0-1.648-.275-2.864-1.148-2.864-.939 0-1.263 1.136-1.36 2.864zm7.12.896v4.816h-1.521V4.048h1.521v4.464l2.346-4.464h1.538l-2.428 4.544 2.767 5.12h-1.65L31.44 8.896zm4.418-.016c0-3.024 1.18-4.976 3.478-4.976.874 0 1.376.224 1.813.496l-.21 1.424c-.405-.352-.988-.672-1.619-.672-1.084 0-1.86 1.216-1.86 3.648 0 2.416.582 3.792 1.812 3.792.744 0 1.294-.288 1.65-.592l.356 1.12c-.518.448-1.149.736-2.039.736-2.12 0-3.381-1.68-3.381-4.976zm15.679 4.832H45.6L45.469 16h-.76v-3.072h.404c.68-.56 1.004-2.096 1.198-4.048.194-2.032.259-5.072.307-8.88h4.855v12.928h.954V16h-.76l-.13-2.288zM50.517.784h-3.009c-.065 3.472-.162 6.112-.307 8.096-.178 2.048-.486 3.408-1.004 4.048h4.32V.784zm5.94 12.336c1.294 0 1.974-1.04 1.974-1.04l.291.736s-.744 1.088-2.282 1.088c-2.07 0-3.025-1.856-3.025-5.024s1.197-5.024 2.847-5.024c1.683 0 2.767 1.744 2.46 5.184h-4.418c.033 2.64.729 4.08 2.153 4.08zm-2.136-4.8h3.543c.162-2.576-.614-3.728-1.618-3.728-1.02.016-1.844 1.312-1.925 3.728zm10.372.736H61.36v4.656h-.907V4.048h.907V8.32h3.333V4.048h.906v9.664h-.906V9.056zm3.074-5.008h.906v3.584h.712c1.86 0 3.058.992 3.058 3.008 0 2.048-1.278 3.072-3.123 3.072h-1.57V4.048h.017zm.906 4.304v4.656h.582c1.376 0 2.314-.672 2.314-2.336 0-1.632-.809-2.32-2.216-2.32h-.68zM74.92 4.8v8.928h-.89v-9.68h4.125V4.8H74.92zm9.206 2.176c0-.496.033-.928.081-1.328h-.064c-.13.416-.308.832-.518 1.248l-3.188 6.816h-.777V4.048h.858v6.72c0 .512-.032.944-.081 1.36h.065c.13-.448.323-.864.518-1.28l3.187-6.784H85v9.664h-.874V6.976z" fill="#1A1A1A"/></g><defs><clipPath id="clip0"><path fill="#fff" d="M0 0h85v16H0z"/></clipPath></defs></svg>