<svg width="24" height="24" fill="none" xmlns="http://www.w3.org/2000/svg"><rect x="2" y="2" width="20" height="20" rx="5" fill="#999"/><rect x="2" y="2" width="20" height="20" rx="5" fill="red"/><path d="M17.736 9.24c.078.269.132.629.168 1.086.042.457.06.851.06 1.194L18 12c0 1.251-.096 2.171-.264 2.76-.15.514-.498.846-1.038.989-.282.074-.798.125-1.59.16-.78.04-1.494.057-2.154.057L12 16c-2.514 0-4.08-.091-4.698-.251-.54-.143-.888-.475-1.038-.989-.078-.269-.132-.629-.168-1.086a13.1 13.1 0 01-.06-1.194L6 12c0-1.251.096-2.171.264-2.76.15-.514.498-.846 1.038-.989.282-.074.798-.125 1.59-.16.78-.04 1.494-.057 2.154-.057L12 8c2.514 0 4.08.091 4.698.251.54.143.888.475 1.038.989z" fill="#fff"/><path d="M14.5 12.202l-4 2.202V10l4 2.202z" fill="#999"/><path d="M14.5 12.202l-4 2.202V10l4 2.202z" fill="red"/></svg>