<svg width="20" height="20" viewBox="0 0 20 20" fill="none" xmlns="http://www.w3.org/2000/svg">
<path d="M0 10C0 5.28595 0 2.92893 1.46447 1.46447C2.92893 0 5.28595 0 10 0V0C14.714 0 17.0711 0 18.5355 1.46447C20 2.92893 20 5.28595 20 10V10C20 14.714 20 17.0711 18.5355 18.5355C17.0711 20 14.714 20 10 20V20C5.28595 20 2.92893 20 1.46447 18.5355C0 17.0711 0 14.714 0 10V10Z" fill="#999999"/>
<path d="M0 10C0 5.28595 0 2.92893 1.46447 1.46447C2.92893 0 5.28595 0 10 0V0C14.714 0 17.0711 0 18.5355 1.46447C20 2.92893 20 5.28595 20 10V10C20 14.714 20 17.0711 18.5355 18.5355C17.0711 20 14.714 20 10 20V20C5.28595 20 2.92893 20 1.46447 18.5355C0 17.0711 0 14.714 0 10V10Z" fill="#EE8208"/>
<path d="M14.5577 10.2775C14.3388 9.84881 13.7212 9.4878 12.9003 10.097C11.7823 10.9544 9.9998 10.9544 9.9998 10.9544C9.9998 10.9544 8.2173 10.9544 7.09933 10.097C6.27844 9.4878 5.66082 9.84881 5.44191 10.2775C5.05101 11.0296 5.48882 11.3981 6.48171 12.0073C7.33387 12.5338 8.49875 12.7293 9.24928 12.8045L8.62384 13.4062C7.73259 14.2561 6.87261 15.0759 6.28626 15.6475C5.93445 15.9934 5.93445 16.5424 6.28626 16.8658L6.39571 16.9862C6.74752 17.3246 7.32605 17.3246 7.67786 16.9862L9.9998 14.7449C10.8989 15.5948 11.751 16.4146 12.3452 16.9862C12.697 17.3246 13.2677 17.3246 13.6274 16.9862L13.729 16.8658C14.0886 16.5424 14.0886 15.9934 13.729 15.6475L11.3992 13.4062L10.7816 12.797C11.5243 12.7293 12.6736 12.5263 13.5179 12.0073C14.5108 11.3981 14.9486 11.0296 14.5577 10.2775ZM9.9998 4.13289C11.0787 4.13289 11.9543 4.97524 11.9543 6.00561C11.9543 7.0435 11.0787 7.87832 9.9998 7.87832C8.92092 7.87832 8.0453 7.0435 8.0453 6.00561C8.0453 4.97524 8.92092 4.13289 9.9998 4.13289ZM9.9998 9.8112C12.1888 9.8112 13.9557 8.11147 13.9557 6.00561C13.9557 3.90727 12.1888 2.20001 9.9998 2.20001C7.81077 2.20001 6.0439 3.90727 6.0439 6.00561C6.0439 8.11147 7.81077 9.8112 9.9998 9.8112Z" fill="white"/>
</svg>
