<svg width="114" height="32" viewBox="0 0 114 32" fill="none" xmlns="http://www.w3.org/2000/svg">
<path d="M0 8C0 3.58172 3.58172 0 8 0H106C110.418 0 114 3.58172 114 8V24C114 28.4183 110.418 32 106 32H0V8Z" fill="#F2C94C"/>
<path fill-rule="evenodd" clip-rule="evenodd" d="M9.63456 15.5771C8.59317 16.6185 8.59317 18.3069 9.63456 19.3483L12.6516 22.3653C13.693 23.4067 15.3814 23.4067 16.4228 22.3653L22.2963 16.4918C22.5589 16.2292 22.7001 15.8689 22.6858 15.4978L22.5042 10.7767C22.4774 10.0806 21.9193 9.52242 21.2231 9.49564L16.5021 9.31407C16.1309 9.29979 15.7707 9.44097 15.508 9.70361L9.63456 15.5771ZM19.6007 13.4435C20.2634 13.4435 20.8007 12.9062 20.8007 12.2434C20.8007 11.5807 20.2634 11.0434 19.6007 11.0434C18.938 11.0434 18.4007 11.5807 18.4007 12.2434C18.4007 12.9062 18.938 13.4435 19.6007 13.4435Z" fill="#1A1A1A"/>
<path d="M34.75 12.8691H32.2246L32.2305 14.1699C32.2344 14.9551 32.2168 15.6484 32.1777 16.25C32.1426 16.8477 32.084 17.3691 32.002 17.8145C31.9238 18.2559 31.8223 18.627 31.6973 18.9277C31.5762 19.2285 31.4316 19.4707 31.2637 19.6543C31.0957 19.834 30.9043 19.9629 30.6895 20.041C30.4746 20.1191 30.2383 20.1582 29.9805 20.1582C29.7695 20.1582 29.582 20.1445 29.418 20.1172C29.2578 20.0938 29.0977 20.0488 28.9375 19.9824L28.9316 18.3359C28.9863 18.3633 29.043 18.3867 29.1016 18.4062C29.1641 18.4219 29.2246 18.4355 29.2832 18.4473C29.3418 18.4551 29.3945 18.4609 29.4414 18.4648C29.4922 18.4688 29.5312 18.4707 29.5586 18.4707C29.6641 18.4707 29.7617 18.457 29.8516 18.4297C29.9453 18.3984 30.0273 18.334 30.0977 18.2363C30.1719 18.1387 30.2363 17.998 30.291 17.8145C30.3457 17.6309 30.3906 17.3867 30.4258 17.082C30.4648 16.7773 30.4922 16.4004 30.5078 15.9512C30.5273 15.502 30.5371 14.9648 30.5371 14.3398V11.3867H36.5488V20H34.75V12.8691ZM41.5527 19.8945C41.4277 20.2617 41.3145 20.5801 41.2129 20.8496C41.1113 21.123 41.0098 21.3574 40.9082 21.5527C40.8105 21.752 40.7051 21.9141 40.5918 22.0391C40.4824 22.168 40.3535 22.2695 40.2051 22.3438C40.0566 22.418 39.8828 22.4688 39.6836 22.4961C39.4844 22.5273 39.248 22.543 38.9746 22.543C38.8652 22.543 38.7617 22.5391 38.6641 22.5312C38.5703 22.5273 38.457 22.5195 38.3242 22.5078V21.166C38.3906 21.1738 38.4727 21.1816 38.5703 21.1895C38.668 21.1973 38.75 21.2012 38.8164 21.2012C38.9922 21.2012 39.1406 21.168 39.2617 21.1016C39.3828 21.0352 39.4785 20.9551 39.5488 20.8613C39.623 20.7715 39.6758 20.6777 39.707 20.5801C39.7383 20.4824 39.7539 20.4004 39.7539 20.334L37.416 13.6133H39.2734L40.6445 18.3184H40.668L41.9746 13.6133H43.75L41.5527 19.8945ZM49.8086 20H48.1504V17.4805C48.0801 17.5117 47.9844 17.5449 47.8633 17.5801C47.7422 17.6113 47.6074 17.6406 47.459 17.668C47.3145 17.6953 47.1621 17.7168 47.002 17.7324C46.8457 17.748 46.6953 17.7559 46.5508 17.7559C46.1875 17.7559 45.8652 17.7246 45.584 17.6621C45.3027 17.5957 45.0664 17.4902 44.875 17.3457C44.6836 17.2012 44.5391 17.0137 44.4414 16.7832C44.3438 16.5488 44.2949 16.2617 44.2949 15.9219V13.6133H45.9531V15.5938C45.9531 15.7773 45.9746 15.9277 46.0176 16.0449C46.0645 16.1621 46.1348 16.2559 46.2285 16.3262C46.3223 16.3965 46.4395 16.4453 46.5801 16.4727C46.7207 16.5 46.8867 16.5137 47.0781 16.5137C47.3633 16.5137 47.5898 16.4883 47.7578 16.4375C47.9258 16.3828 48.0566 16.3223 48.1504 16.2559V13.6133H49.8086V20ZM51.3965 13.6133H53.0547V18.6582H54.7832V13.6133H56.4355V18.6582H58.1641V13.6133H59.8223V20H51.3965V13.6133ZM66.5664 18.7402C66.5664 18.9316 66.5762 19.0898 66.5957 19.2148C66.6191 19.3359 66.6484 19.4336 66.6836 19.5078C66.7188 19.5781 66.7578 19.6309 66.8008 19.666C66.8477 19.6973 66.8965 19.7207 66.9473 19.7363V20H65.1133C65.082 19.9258 65.0469 19.8281 65.0078 19.707C64.9727 19.582 64.9551 19.4316 64.9551 19.2559C64.8262 19.3887 64.6992 19.5117 64.5742 19.625C64.4531 19.7383 64.3164 19.8379 64.1641 19.9238C64.0117 20.0059 63.8359 20.0703 63.6367 20.1172C63.4375 20.168 63.1973 20.1934 62.916 20.1934C62.6309 20.1934 62.3672 20.1504 62.125 20.0645C61.8867 19.9824 61.6797 19.8594 61.5039 19.6953C61.3281 19.5312 61.1914 19.3262 61.0938 19.0801C60.9961 18.834 60.9473 18.5488 60.9473 18.2246C60.9473 17.9629 60.9883 17.7207 61.0703 17.498C61.1523 17.2715 61.2676 17.0742 61.416 16.9062C61.5684 16.7344 61.752 16.5938 61.9668 16.4844C62.1855 16.3711 62.4297 16.2949 62.6992 16.2559L64.3223 16.0156C64.3809 16.0078 64.4434 15.9961 64.5098 15.9805C64.5801 15.9648 64.6445 15.9395 64.7031 15.9043C64.7617 15.8652 64.8105 15.8145 64.8496 15.752C64.8887 15.6855 64.9082 15.5977 64.9082 15.4883C64.9082 15.3828 64.8906 15.2871 64.8555 15.2012C64.8242 15.1113 64.7695 15.0352 64.6914 14.9727C64.6133 14.9062 64.5078 14.8555 64.375 14.8203C64.2461 14.7852 64.084 14.7676 63.8887 14.7676C63.666 14.7676 63.4863 14.791 63.3496 14.8379C63.2168 14.8809 63.1113 14.9434 63.0332 15.0254C62.9551 15.1035 62.8984 15.1973 62.8633 15.3066C62.8281 15.4121 62.8027 15.5254 62.7871 15.6465H61.1289C61.1289 15.5684 61.1406 15.4609 61.1641 15.3242C61.1914 15.1836 61.2383 15.0312 61.3047 14.8672C61.375 14.7031 61.4707 14.5371 61.5918 14.3691C61.7168 14.2012 61.8789 14.0488 62.0781 13.9121C62.2812 13.7715 62.5273 13.6562 62.8164 13.5664C63.1055 13.4766 63.4512 13.4297 63.8535 13.4258C64.4238 13.4258 64.8848 13.4844 65.2363 13.6016C65.5918 13.7148 65.8672 13.8652 66.0625 14.0527C66.2617 14.2363 66.3945 14.4434 66.4609 14.6738C66.5312 14.9004 66.5664 15.127 66.5664 15.3535V18.7402ZM64.9082 16.8828C64.8066 16.9375 64.7051 16.9883 64.6035 17.0352C64.502 17.0781 64.3672 17.1152 64.1992 17.1465L63.7598 17.2285C63.5684 17.2637 63.4004 17.3047 63.2559 17.3516C63.1113 17.3984 62.9902 17.4609 62.8926 17.5391C62.7988 17.6133 62.7266 17.7051 62.6758 17.8145C62.6289 17.9238 62.6055 18.0605 62.6055 18.2246C62.6055 18.3613 62.627 18.4805 62.6699 18.582C62.7129 18.6797 62.7715 18.7617 62.8457 18.8281C62.9238 18.8906 63.0137 18.9375 63.1152 18.9688C63.2168 19 63.3262 19.0156 63.4434 19.0156C63.5059 19.0156 63.5859 19.0098 63.6836 18.998C63.7812 18.9824 63.8848 18.9551 63.9941 18.916C64.1035 18.877 64.2129 18.8242 64.3223 18.7578C64.4316 18.6875 64.5293 18.5977 64.6152 18.4883C64.7012 18.3789 64.7715 18.2461 64.8262 18.0898C64.8809 17.9297 64.9082 17.7422 64.9082 17.5273V16.8828ZM73.8438 20H72.1797V17.6504H71.0957C70.8574 17.6504 70.6523 17.6602 70.4805 17.6797C70.3125 17.6953 70.1738 17.7363 70.0645 17.8027C69.9551 17.8652 69.8711 17.959 69.8125 18.084C69.7578 18.209 69.7266 18.3789 69.7188 18.5938L69.6953 19.209C69.6875 19.2988 69.6758 19.416 69.6602 19.5605C69.6484 19.7051 69.6113 19.8516 69.5488 20H67.7969C67.8477 19.9141 67.8887 19.832 67.9199 19.7539C67.9512 19.6719 67.9746 19.5938 67.9902 19.5195C68.0098 19.4414 68.0234 19.3633 68.0312 19.2852C68.043 19.207 68.0527 19.125 68.0605 19.0391L68.1426 18.2715C68.1621 18.0996 68.1855 17.9512 68.2129 17.8262C68.2402 17.7012 68.2852 17.5938 68.3477 17.5039C68.4102 17.4102 68.4961 17.3301 68.6055 17.2637C68.7148 17.1973 68.8613 17.1367 69.0449 17.082C68.9863 17.0664 68.9199 17.0449 68.8457 17.0176C68.7754 16.9863 68.6992 16.9473 68.6172 16.9004C68.5391 16.8496 68.459 16.7871 68.377 16.7129C68.2988 16.6348 68.2246 16.5391 68.1543 16.4258C68.1035 16.3516 68.0625 16.2734 68.0312 16.1914C68.0039 16.1055 67.9824 16.0234 67.9668 15.9453C67.9512 15.8633 67.9414 15.7871 67.9375 15.7168C67.9336 15.6465 67.9316 15.5859 67.9316 15.5352C67.9316 15.3086 67.959 15.1074 68.0137 14.9316C68.0684 14.752 68.1387 14.5957 68.2246 14.4629C68.3105 14.3301 68.4082 14.2168 68.5176 14.123C68.627 14.0293 68.7383 13.9531 68.8516 13.8945C68.9766 13.8242 69.1152 13.7715 69.2676 13.7363C69.4199 13.6973 69.5684 13.6699 69.7129 13.6543C69.8574 13.6348 69.9922 13.623 70.1172 13.6191C70.2422 13.6152 70.3398 13.6133 70.4102 13.6133H73.8438V20ZM72.1797 14.8613H70.8438C70.7031 14.8613 70.5625 14.8652 70.4219 14.873C70.2812 14.8809 70.1543 14.9121 70.041 14.9668C69.9316 15.0176 69.8418 15.0996 69.7715 15.2129C69.7051 15.3223 69.6719 15.4785 69.6719 15.6816C69.6719 15.8809 69.7051 16.0332 69.7715 16.1387C69.8418 16.2441 69.9297 16.3223 70.0352 16.373C70.1445 16.4238 70.2656 16.4531 70.3984 16.4609C70.5312 16.4688 70.6641 16.4727 70.7969 16.4727H72.1797V14.8613ZM78.7598 13.6133H80.418V18.6582H82.8555V13.6133H84.5078V18.6582H85.2871V21.5352H83.752V20H78.7598V13.6133ZM87.2852 17.3223C87.2852 17.3809 87.291 17.459 87.3027 17.5566C87.3145 17.6543 87.3379 17.7598 87.373 17.873C87.4082 17.9863 87.459 18.1016 87.5254 18.2188C87.5918 18.332 87.6797 18.4355 87.7891 18.5293C87.9023 18.623 88.0391 18.6992 88.1992 18.7578C88.3633 18.8164 88.5586 18.8457 88.7852 18.8457C88.9023 18.8457 89.0176 18.8301 89.1309 18.7988C89.248 18.7637 89.3555 18.7148 89.4531 18.6523C89.5508 18.5859 89.6348 18.5078 89.7051 18.418C89.7793 18.3242 89.832 18.2188 89.8633 18.1016H91.5801C91.5801 18.2188 91.5547 18.3535 91.5039 18.5059C91.4531 18.6543 91.375 18.8066 91.2695 18.9629C91.168 19.1152 91.0391 19.2656 90.8828 19.4141C90.7266 19.5625 90.541 19.6953 90.3262 19.8125C90.1113 19.9258 89.8672 20.0176 89.5938 20.0879C89.3242 20.1582 89.0234 20.1934 88.6914 20.1934C88.2656 20.1934 87.8652 20.1289 87.4902 20C87.1191 19.875 86.793 19.6758 86.5117 19.4023C86.2344 19.125 86.0156 18.7676 85.8555 18.3301C85.6953 17.8926 85.6152 17.3613 85.6152 16.7363C85.6152 16.3027 85.6719 15.8867 85.7852 15.4883C85.9023 15.0859 86.082 14.7324 86.3242 14.4277C86.5703 14.123 86.8828 13.8809 87.2617 13.7012C87.6445 13.5176 88.1035 13.4258 88.6387 13.4258C89.2051 13.4258 89.6816 13.5195 90.0684 13.707C90.4551 13.8906 90.7656 14.1523 91 14.4922C91.2383 14.832 91.4082 15.2422 91.5098 15.7227C91.6113 16.2031 91.6621 16.7363 91.6621 17.3223H87.2852ZM89.9395 16.2207C89.9395 15.9395 89.8965 15.7051 89.8105 15.5176C89.7285 15.3301 89.623 15.1816 89.4941 15.0723C89.3691 14.959 89.2305 14.8809 89.0781 14.8379C88.9258 14.791 88.7793 14.7676 88.6387 14.7676C88.502 14.7676 88.3574 14.791 88.2051 14.8379C88.0527 14.8809 87.9121 14.959 87.7832 15.0723C87.6582 15.1816 87.5527 15.3301 87.4668 15.5176C87.3848 15.7051 87.3438 15.9395 87.3438 16.2207H89.9395ZM92.7754 13.6133H94.4336V15.9219H96.8711V13.6133H98.5234V20H96.8711V17.2637H94.4336V20H92.7754V13.6133ZM105.273 18.7402C105.273 18.9316 105.283 19.0898 105.303 19.2148C105.326 19.3359 105.355 19.4336 105.391 19.5078C105.426 19.5781 105.465 19.6309 105.508 19.666C105.555 19.6973 105.604 19.7207 105.654 19.7363V20H103.82C103.789 19.9258 103.754 19.8281 103.715 19.707C103.68 19.582 103.662 19.4316 103.662 19.2559C103.533 19.3887 103.406 19.5117 103.281 19.625C103.16 19.7383 103.023 19.8379 102.871 19.9238C102.719 20.0059 102.543 20.0703 102.344 20.1172C102.145 20.168 101.904 20.1934 101.623 20.1934C101.338 20.1934 101.074 20.1504 100.832 20.0645C100.594 19.9824 100.387 19.8594 100.211 19.6953C100.035 19.5312 99.8984 19.3262 99.8008 19.0801C99.7031 18.834 99.6543 18.5488 99.6543 18.2246C99.6543 17.9629 99.6953 17.7207 99.7773 17.498C99.8594 17.2715 99.9746 17.0742 100.123 16.9062C100.275 16.7344 100.459 16.5938 100.674 16.4844C100.893 16.3711 101.137 16.2949 101.406 16.2559L103.029 16.0156C103.088 16.0078 103.15 15.9961 103.217 15.9805C103.287 15.9648 103.352 15.9395 103.41 15.9043C103.469 15.8652 103.518 15.8145 103.557 15.752C103.596 15.6855 103.615 15.5977 103.615 15.4883C103.615 15.3828 103.598 15.2871 103.562 15.2012C103.531 15.1113 103.477 15.0352 103.398 14.9727C103.32 14.9062 103.215 14.8555 103.082 14.8203C102.953 14.7852 102.791 14.7676 102.596 14.7676C102.373 14.7676 102.193 14.791 102.057 14.8379C101.924 14.8809 101.818 14.9434 101.74 15.0254C101.662 15.1035 101.605 15.1973 101.57 15.3066C101.535 15.4121 101.51 15.5254 101.494 15.6465H99.8359C99.8359 15.5684 99.8477 15.4609 99.8711 15.3242C99.8984 15.1836 99.9453 15.0312 100.012 14.8672C100.082 14.7031 100.178 14.5371 100.299 14.3691C100.424 14.2012 100.586 14.0488 100.785 13.9121C100.988 13.7715 101.234 13.6562 101.523 13.5664C101.812 13.4766 102.158 13.4297 102.561 13.4258C103.131 13.4258 103.592 13.4844 103.943 13.6016C104.299 13.7148 104.574 13.8652 104.77 14.0527C104.969 14.2363 105.102 14.4434 105.168 14.6738C105.238 14.9004 105.273 15.127 105.273 15.3535V18.7402ZM103.615 16.8828C103.514 16.9375 103.412 16.9883 103.311 17.0352C103.209 17.0781 103.074 17.1152 102.906 17.1465L102.467 17.2285C102.275 17.2637 102.107 17.3047 101.963 17.3516C101.818 17.3984 101.697 17.4609 101.6 17.5391C101.506 17.6133 101.434 17.7051 101.383 17.8145C101.336 17.9238 101.312 18.0605 101.312 18.2246C101.312 18.3613 101.334 18.4805 101.377 18.582C101.42 18.6797 101.479 18.7617 101.553 18.8281C101.631 18.8906 101.721 18.9375 101.822 18.9688C101.924 19 102.033 19.0156 102.15 19.0156C102.213 19.0156 102.293 19.0098 102.391 18.998C102.488 18.9824 102.592 18.9551 102.701 18.916C102.811 18.877 102.92 18.8242 103.029 18.7578C103.139 18.6875 103.236 18.5977 103.322 18.4883C103.408 18.3789 103.479 18.2461 103.533 18.0898C103.588 17.9297 103.615 17.7422 103.615 17.5273V16.8828Z" fill="#1A1A1A"/>
</svg>
