<svg width="28" height="28" fill="none" xmlns="http://www.w3.org/2000/svg"><path d="M0 4a4 4 0 014-4h20a4 4 0 014 4v20a4 4 0 01-4 4H4a4 4 0 01-4-4V4z" fill="#fff"/><path fill-rule="evenodd" clip-rule="evenodd" d="M23 6H5v8h18V6zM5 4a2 2 0 00-2 2v10h22V6a2 2 0 00-2-2H5z" fill="#1A1A1A"/><path d="M5 21a1 1 0 112 0v3a1 1 0 11-2 0v-3zm16 0a1 1 0 112 0v3a1 1 0 11-2 0v-3z" fill="#1A1A1A"/><path fill-rule="evenodd" clip-rule="evenodd" d="M13 13a1 1 0 00-1-1H8a1 1 0 00-1 1v1h6v-1zm8 0a1 1 0 00-1-1h-4a1 1 0 00-1 1v1h6v-1zM3 16v4h22v-4H3zm-1-2a1 1 0 00-1 1v6a1 1 0 001 1h24a1 1 0 001-1v-6a1 1 0 00-1-1H2z" fill="#1A1A1A"/></svg>