<svg width="28" height="28" fill="none" xmlns="http://www.w3.org/2000/svg"><path d="M0 4a4 4 0 014-4h20a4 4 0 014 4v20a4 4 0 01-4 4H4a4 4 0 01-4-4V4z" fill="#fff"/><path fill-rule="evenodd" clip-rule="evenodd" d="M4.63 15.984a.5.5 0 10-.259-.966.5.5 0 00.259.966zm.518 1.931a2.5 2.5 0 10-1.294-4.83 2.5 2.5 0 001.294 4.83zm18.482-1.931a.5.5 0 10-.259-.966.5.5 0 00.259.966zm.518 1.931a2.5 2.5 0 10-1.294-4.83 2.5 2.5 0 001.294 4.83z" fill="#1A1A1A"/><path d="M25 14c0 6.075-4.925 11-11 11S3 20.075 3 14 7.925 3 14 3s11 4.925 11 11z" fill="#fff"/><path fill-rule="evenodd" clip-rule="evenodd" d="M14 23a9 9 0 100-18 9 9 0 000 18zm0 2c6.075 0 11-4.925 11-11S20.075 3 14 3 3 7.925 3 14s4.925 11 11 11z" fill="#1A1A1A"/><path fill-rule="evenodd" clip-rule="evenodd" d="M18.585 18.093a1 1 0 01-.175 1.403 7.183 7.183 0 01-8.746.057 1 1 0 011.207-1.595 5.183 5.183 0 006.31-.04 1 1 0 011.404.175z" fill="#1A1A1A"/><path d="M20 14.5a1.5 1.5 0 11-3 0 1.5 1.5 0 013 0zm-9 0a1.5 1.5 0 11-3 0 1.5 1.5 0 013 0z" fill="#1A1A1A"/><path d="M7.004 11.583c-6.952 0-4.633-6.955-4.633-6.955S4.305 6.5 6.5 6.5c.996 0 3.5-3 8.5-3 9.265 0 9 8.5 9 8.5l-4-3s-6.044 2.583-12.996 2.583z" fill="#fff"/><path fill-rule="evenodd" clip-rule="evenodd" d="M8.77 4.122C10.244 3.318 12.285 2.5 15 2.5c2.474 0 4.384.57 5.844 1.48 1.458.909 2.407 2.12 3.02 3.313.61 1.186.89 2.36 1.021 3.23a10.526 10.526 0 01.116 1.376v.09l-.001.027v.014L24 12l1 .031-.06 1.924-5.091-3.819c-.157.06-.346.13-.564.209-.697.25-1.695.58-2.914.912-2.433.66-5.774 1.326-9.367 1.326-1.903 0-3.317-.478-4.308-1.327-.988-.848-1.431-1.96-1.602-2.986-.169-1.018-.081-2.008.037-2.72a9.947 9.947 0 01.28-1.204l.008-.022.002-.008.001-.002v-.001l.95.315-.95-.315.503-1.508 1.14 1.103.01.01.05.046c.048.041.12.104.214.181.19.155.465.362.799.568.673.416 1.494.77 2.306.786a1.04 1.04 0 00.075-.032c.118-.056.276-.147.499-.285l.312-.197c.39-.247.881-.558 1.44-.863zM3.036 6.383a5.977 5.977 0 00.031 1.559c.119.712.4 1.34.931 1.796.53.454 1.433.845 3.006.845 3.36 0 6.516-.625 8.843-1.256a36.82 36.82 0 002.762-.865 25.55 25.55 0 00.94-.358l.047-.019.01-.004h.001l.531-.227 2.546 1.91a8.098 8.098 0 00-.6-1.557c-.478-.932-1.2-1.846-2.298-2.53C18.69 4.993 17.158 4.5 15 4.5c-2.285 0-3.996.682-5.273 1.378-.495.27-.91.533-1.293.775l-.361.228c-.23.143-.47.286-.7.394-.212.1-.523.225-.873.225-1.365 0-2.586-.574-3.413-1.085a10.38 10.38 0 01-.05-.032z" fill="#1A1A1A"/></svg>