<svg width="28" height="28" fill="none" xmlns="http://www.w3.org/2000/svg"><path d="M0 4a4 4 0 014-4h20a4 4 0 014 4v20a4 4 0 01-4 4H4a4 4 0 01-4-4V4z" fill="#fff"/><path d="M6 25v-3H4v3a1 1 0 102 0zm5 0v-3H9v3a1 1 0 102 0zm8 0v-3h-2v3a1 1 0 102 0zm5 0v-3h-2v3a1 1 0 102 0z" fill="#1A1A1A"/><path fill-rule="evenodd" clip-rule="evenodd" d="M4 14v8h20v-8H4zm-1-2a1 1 0 00-1 1v10a1 1 0 001 1h22a1 1 0 001-1V13a1 1 0 00-1-1H3z" fill="#1A1A1A"/><path fill-rule="evenodd" clip-rule="evenodd" d="M17 17a1 1 0 100 2h4a1 1 0 100-2h-4z" fill="#1A1A1A"/><path d="M7 16a1 1 0 011-1h2a1 1 0 110 2H8a1 1 0 01-1-1z" fill="#1A1A1A"/><path fill-rule="evenodd" clip-rule="evenodd" d="M18.4 3v1a3 3 0 01-.931 2.172L16.6 7h6.8l-.869-.828A3 3 0 0121.6 4V3h-3.2zm-1-2a1 1 0 00-1 1v2a1 1 0 01-.31.724L14.31 6.42a1 1 0 00-.31.724V8a1 1 0 001 1h10a1 1 0 001-1v-.857a1 1 0 00-.31-.724l-1.78-1.695A1 1 0 0123.6 4V2a1 1 0 00-1-1h-5.2z" fill="#1A1A1A"/><path d="M6 11a1 1 0 011-1h4a1 1 0 110 2H7a1 1 0 01-1-1z" fill="#1A1A1A"/></svg>