<svg width="28" height="28" fill="none" xmlns="http://www.w3.org/2000/svg"><path fill-rule="evenodd" clip-rule="evenodd" d="M14 17.667a1 1 0 011 1v7a1 1 0 01-2 0v-7a1 1 0 011-1z" fill="#1A1A1A"/><path fill-rule="evenodd" clip-rule="evenodd" d="M20.814 24.696a1 1 0 01-1.177.785l-4.264-.853a6.998 6.998 0 00-2.746 0l-4.264.853a1 1 0 01-.392-1.962l4.264-.852a9 9 0 013.53 0l4.264.852a1 1 0 01.785 1.177zM5.553 13.04a1 1 0 011.24.68l.693 2.375c.093.318.36.554.686.607 3.86.63 7.796.63 11.656 0a.859.859 0 00.686-.607l.693-2.375a1 1 0 111.92.56l-.693 2.375a2.859 2.859 0 01-2.284 2.02 38.166 38.166 0 01-12.3 0 2.858 2.858 0 01-2.284-2.02l-.693-2.375a1 1 0 01.68-1.24z" fill="#1A1A1A"/><path fill-rule="evenodd" clip-rule="evenodd" d="M18.826 3.167H9.174l.86 10.327c2.624.458 5.308.458 7.932 0l.86-10.327zm-9.652-2A2 2 0 007.18 3.333l.907 10.895A1.252 1.252 0 009.09 15.35c3.241.649 6.579.649 9.82 0a1.252 1.252 0 001.002-1.123l.908-10.895a2 2 0 00-1.994-2.166H9.174zM21.167 14a1 1 0 011-1h1.166a1 1 0 110 2h-1.166a1 1 0 01-1-1zm-17.5 0a1 1 0 011-1h1.166a1 1 0 110 2H4.667a1 1 0 01-1-1z" fill="#1A1A1A"/></svg>