<svg width="28" height="28" fill="none" xmlns="http://www.w3.org/2000/svg"><path d="M15.75 13.417a1.75 1.75 0 11-3.5 0 1.75 1.75 0 013.5 0z" fill="#1A1A1A"/><path fill-rule="evenodd" clip-rule="evenodd" d="M14 14.167a.75.75 0 100-1.5.75.75 0 000 1.5zm0 1a1.75 1.75 0 100-3.5 1.75 1.75 0 000 3.5z" fill="#1A1A1A"/><path fill-rule="evenodd" clip-rule="evenodd" d="M1.837 9.632a1 1 0 011.365.372l4.43 7.754c4.216.703 8.52.703 12.735 0l4.431-7.754a1 1 0 011.737.992l-4.433 7.757c-.297.52-.812.88-1.403.978a40.75 40.75 0 01-13.398 0 1.994 1.994 0 01-1.403-.978l-4.433-7.757a1 1 0 01.372-1.364zm18.529 8.129l.005.003-.005-.003zM14 2.5a1 1 0 011 1V7a1 1 0 11-2 0V3.5a1 1 0 011-1z" fill="#1A1A1A"/><path fill-rule="evenodd" clip-rule="evenodd" d="M21.118 4.898a1 1 0 01.584 1.288l-1.105 2.936a1 1 0 11-1.872-.704L19.83 5.48a1 1 0 011.288-.583zM6.88 4.897a1 1 0 011.288.584l1.105 2.937a1 1 0 11-1.872.704L6.296 6.185a1 1 0 01.584-1.288z" fill="#1A1A1A"/><path fill-rule="evenodd" clip-rule="evenodd" d="M12.987 5.623a1.132 1.132 0 012.026 0l.4.8a2.582 2.582 0 003.742.994 1.109 1.109 0 011.68.618L21 8.61a3.64 3.64 0 003.5 2.64v2a5.64 5.64 0 01-5.277-3.65A4.589 4.589 0 0114 7.942 4.589 4.589 0 018.777 9.6 5.64 5.64 0 013.5 13.25v-2A3.64 3.64 0 007 8.61l.164-.575a1.109 1.109 0 011.681-.618 2.582 2.582 0 003.742-.994l.4-.8zm8.041 17.875a.982.982 0 01-.824 1.14 43.779 43.779 0 01-12.407 0 .982.982 0 01-.824-1.14l.055-.329a1.02 1.02 0 011.153-.834c3.86.548 7.779.548 11.64 0a1.02 1.02 0 011.152.834l.055.329z" fill="#1A1A1A"/></svg>