<svg width="28" height="28" fill="none" xmlns="http://www.w3.org/2000/svg"><path d="M0 4a4 4 0 014-4h20a4 4 0 014 4v20a4 4 0 01-4 4H4a4 4 0 01-4-4V4z" fill="#fff"/><path fill-rule="evenodd" clip-rule="evenodd" d="M11 6H4v17h7V6zM4 4a2 2 0 00-2 2v17a2 2 0 002 2h7a2 2 0 002-2V6a2 2 0 00-2-2H4z" fill="#1A1A1A"/><path d="M11 13h-1a1 1 0 00-1 1v3a1 1 0 001 1h1v-5zm5 9a1 1 0 112 0v2a1 1 0 11-2 0v-2zm7 0a1 1 0 112 0v2a1 1 0 11-2 0v-2z" fill="#1A1A1A"/><path fill-rule="evenodd" clip-rule="evenodd" d="M17 18v3h7v-3h-7zm-1-2a1 1 0 00-1 1v5a1 1 0 001 1h9a1 1 0 001-1v-5a1 1 0 00-1-1h-9z" fill="#1A1A1A"/><path d="M15 10a1 1 0 011-1h6a1 1 0 110 2h-6a1 1 0 01-1-1zm3-4a1 1 0 011-1h6a1 1 0 110 2h-6a1 1 0 01-1-1z" fill="#1A1A1A"/></svg>