<svg width="28" height="28" fill="none" xmlns="http://www.w3.org/2000/svg"><path fill-rule="evenodd" clip-rule="evenodd" d="M11.885 24.665a29.008 29.008 0 003.87-.204c1.095-.138 1.964-.332 2.55-.544l-.026-.01c-.657-.234-1.64-.44-2.86-.574a29.942 29.942 0 00-3.915-.158c-1.35.032-2.622.15-3.673.334-1.08.19-1.79.427-2.137.633a1 1 0 11-1.02-1.72c.667-.396 1.67-.682 2.81-.883 1.17-.205 2.545-.33 3.973-.363a31.794 31.794 0 014.182.169c1.297.143 2.45.371 3.311.678.427.152.825.338 1.141.574.298.221.67.6.733 1.162.069.604-.253 1.057-.55 1.328-.296.269-.682.472-1.082.632-.81.324-1.924.567-3.187.726a30.99 30.99 0 01-4.143.22 1 1 0 11.023-2z" fill="#1A1A1A"/><path fill-rule="evenodd" clip-rule="evenodd" d="M10.677 1.024a1 1 0 011.132-.847c2.005.289 3.707.929 5.188 2.047 1.473 1.113 2.667 2.652 3.732 4.649.745 1.397 1.084 3.167 1.208 4.952.125 1.802.038 3.708-.129 5.434a54.302 54.302 0 01-.97 6.166l-.023.1-.006.026-.002.01-.974-.228.974.229a1 1 0 01-1.947-.457l.001-.006.005-.021.02-.089a48.073 48.073 0 00.33-1.65c.201-1.099.441-2.613.602-4.272.16-1.663.239-3.45.124-5.103-.117-1.669-.425-3.114-.978-4.15-.976-1.83-2-3.109-3.172-3.994-1.164-.878-2.532-1.413-4.268-1.664a1 1 0 01-.847-1.132z" fill="#1A1A1A"/><path fill-rule="evenodd" clip-rule="evenodd" d="M11.667.167a1 1 0 011 1v4.666a1 1 0 11-2 0V1.167a1 1 0 011-1z" fill="#1A1A1A"/><path d="M11.083 3.5l1.351.624c3.9 1.71 3.247 8.256 2.02 11.694A5.833 5.833 0 017 19.351l-3.5-1.268L11.083 3.5z" fill="#fff"/><path fill-rule="evenodd" clip-rule="evenodd" d="M12.434 4.124l-1.35-.624L3.5 18.083 7 19.351a5.833 5.833 0 007.454-3.533c1.227-3.438 1.88-9.985-2.02-11.694zM6.328 16.981l1.348.488a3.833 3.833 0 004.894-2.323c.538-1.506.949-3.72.802-5.674-.133-1.772-.661-2.826-1.407-3.332L6.328 16.98z" fill="#1A1A1A"/><path d="M11.083 3.5c3.5 0-1.942 16.698-7.584 14.583C-2.142 15.968 7.301 3.5 11.083 3.5z" fill="#fff"/><path fill-rule="evenodd" clip-rule="evenodd" d="M3.836 15.948c.026.051.082.156.366.263.3.113.89.137 1.93-.917 1.001-1.017 1.98-2.65 2.74-4.478.759-1.821 1.213-3.625 1.3-4.878v-.006c-.39.25-.837.595-1.321 1.032-1.185 1.071-2.427 2.553-3.401 4.1-.998 1.585-1.583 3.034-1.688 4.053-.05.49.025.734.074.831zM11.083 3.5c3.5 0-1.942 16.698-7.584 14.583C-2.142 15.968 7.301 3.5 11.083 3.5z" fill="#1A1A1A"/></svg>