<svg width="28" height="28" fill="none" xmlns="http://www.w3.org/2000/svg"><path d="M0 4a4 4 0 014-4h20a4 4 0 014 4v20a4 4 0 01-4 4H4a4 4 0 01-4-4V4z"/><path d="M6 23a1 1 0 112 0v2a1 1 0 11-2 0v-2zm14 0a1 1 0 112 0v2a1 1 0 11-2 0v-2z" fill="#1A1A1A"/><path fill-rule="evenodd" clip-rule="evenodd" d="M23 5H5v17h18V5zM5 3a2 2 0 00-2 2v17a2 2 0 002 2h18a2 2 0 002-2V5a2 2 0 00-2-2H5z" fill="#1A1A1A"/><path d="M13 5h2v19h-2V5zm4 8h1a1 1 0 011 1v3a1 1 0 01-1 1h-1v-5zm-6 0h-1a1 1 0 00-1 1v3a1 1 0 001 1h1v-5z" fill="#1A1A1A"/></svg>