<svg width="28" height="28" fill="none" xmlns="http://www.w3.org/2000/svg"><path d="M6 21a1 1 0 112 0v2a1 1 0 11-2 0v-2zm14 0a1 1 0 112 0v2a1 1 0 11-2 0v-2z" fill="#1A1A1A"/><path fill-rule="evenodd" clip-rule="evenodd" d="M7 17v-2.5a1.5 1.5 0 00-3 0V20h20v-5.5a1.5 1.5 0 00-3 0V17H7zm2-2v-.5a3.5 3.5 0 10-7 0V21a1 1 0 001 1h22a1 1 0 001-1v-6.5a3.5 3.5 0 10-7 0v.5H9z" fill="#1A1A1A"/><path fill-rule="evenodd" clip-rule="evenodd" d="M4 7a2 2 0 012-2h16a2 2 0 012 2v5h-2V7H6v5H4V7z" fill="#1A1A1A"/></svg>